<svg width="20" height="20" viewBox="0 0 20 20" fill="none" xmlns="http://www.w3.org/2000/svg">
<path d="M9.99603 1.80194C12.6667 1.80194 12.9802 1.81385 14.0357 1.86148C15.0119 1.90514 15.5397 2.06787 15.8929 2.20679C16.3611 2.38936 16.6944 2.60369 17.0437 2.95297C17.3929 3.30224 17.6111 3.63564 17.7897 4.10399C17.9246 4.45723 18.0913 4.98512 18.1349 5.9615C18.1825 7.01727 18.1944 7.33082 18.1944 10.002C18.1944 12.6732 18.1825 12.9867 18.1349 14.0425C18.0913 15.0189 17.9286 15.5467 17.7897 15.9C17.6071 16.3683 17.3929 16.7017 17.0437 17.051C16.6944 17.4003 16.3611 17.6186 15.8929 17.7972C15.5397 17.9321 15.0119 18.0988 14.0357 18.1425C12.9802 18.1901 12.6667 18.202 9.99603 18.202C7.3254 18.202 7.0119 18.1901 5.95635 18.1425C4.98016 18.0988 4.45238 17.9361 4.09921 17.7972C3.63095 17.6146 3.29762 17.4003 2.94841 17.051C2.59921 16.7017 2.38095 16.3683 2.20238 15.9C2.06746 15.5467 1.90079 15.0189 1.85714 14.0425C1.80952 12.9867 1.79762 12.6732 1.79762 10.002C1.79762 7.33082 1.80952 7.01727 1.85714 5.9615C1.90079 4.98512 2.06349 4.45723 2.20238 4.10399C2.38492 3.63564 2.59921 3.30224 2.94841 2.95297C3.29762 2.60369 3.63095 2.38539 4.09921 2.20679C4.45238 2.07184 4.98016 1.90514 5.95635 1.86148C7.0119 1.80988 7.3254 1.80194 9.99603 1.80194ZM9.99603 0C7.28175 0 6.94048 0.0119071 5.87302 0.0595356C4.80952 0.107164 4.08333 0.277833 3.44841 0.523913C2.78968 0.777932 2.23413 1.12324 1.67857 1.6789C1.12302 2.23457 0.781746 2.79421 0.523809 3.4491C0.277778 4.08414 0.107143 4.81048 0.0595238 5.87815C0.0119048 6.94185 0 7.28319 0 9.99802C0 12.7128 0.0119048 13.0542 0.0595238 14.1219C0.107143 15.1856 0.277778 15.9119 0.523809 16.5509C0.777778 17.2098 1.12302 17.7654 1.67857 18.3211C2.23413 18.8768 2.79365 19.2181 3.44841 19.4761C4.08333 19.7222 4.80952 19.8928 5.87698 19.9405C6.94444 19.9881 7.28175 20 10 20C12.7183 20 13.0556 19.9881 14.123 19.9405C15.1865 19.8928 15.9127 19.7222 16.5516 19.4761C17.2103 19.2221 17.7659 18.8768 18.3214 18.3211C18.877 17.7654 19.2183 17.2058 19.4762 16.5509C19.7222 15.9159 19.8929 15.1895 19.9405 14.1219C19.9881 13.0542 20 12.7168 20 9.99802C20 7.27922 19.9881 6.94185 19.9405 5.87418C19.8929 4.81048 19.7222 4.08414 19.4762 3.44513C19.2222 2.78627 18.877 2.2306 18.3214 1.67494C17.7659 1.11927 17.2064 0.777932 16.5516 0.519944C15.9167 0.273864 15.1905 0.103195 14.123 0.0555666C13.0516 0.0119071 12.7103 0 9.99603 0Z" fill="white"/>
<path d="M9.996 4.8623C7.16267 4.8623 4.86108 7.16038 4.86108 9.99824C4.86108 12.8361 7.16267 15.1342 9.996 15.1342C12.8293 15.1342 15.1309 12.8321 15.1309 9.99824C15.1309 7.16435 12.8293 4.8623 9.996 4.8623ZM9.996 13.3322C8.15473 13.3322 6.66267 11.8399 6.66267 9.99824C6.66267 8.15661 8.15473 6.66425 9.996 6.66425C11.8373 6.66425 13.3293 8.15661 13.3293 9.99824C13.3293 11.8399 11.8373 13.3322 9.996 13.3322Z" fill="white"/>
<path d="M15.3334 5.85824C15.9953 5.85824 16.5318 5.32158 16.5318 4.65959C16.5318 3.99759 15.9953 3.46094 15.3334 3.46094C14.6716 3.46094 14.135 3.99759 14.135 4.65959C14.135 5.32158 14.6716 5.85824 15.3334 5.85824Z" fill="white"/>
</svg>
