<svg width="20" height="16" viewBox="0 0 20 16" fill="none" xmlns="http://www.w3.org/2000/svg">
<path d="M0 1C0 0.447715 0.447715 0 1 0H5H19C19.5523 0 20 0.447715 20 1C20 1.55228 19.5523 2 19 2H1C0.447715 2 0 1.55228 0 1Z" fill="white"/>
<path d="M0 8C0 7.44772 0.447715 7 1 7H6H11C11.5523 7 12 7.44772 12 8C12 8.55228 11.5523 9 11 9H1C0.447715 9 0 8.55228 0 8Z" fill="white"/>
<path d="M0 15C0 14.4477 0.447715 14 1 14H15C15.5523 14 16 14.4477 16 15C16 15.5523 15.5523 16 15 16H1C0.447715 16 0 15.5523 0 15Z" fill="white"/>
</svg>
