<svg width="15" height="20" viewBox="0 0 15 20" fill="none" xmlns="http://www.w3.org/2000/svg">
<path d="M7.5 0C5.51088 0 3.60322 0.804541 2.1967 2.23663C0.790176 3.66872 0 5.61106 0 7.63634C0 12.7909 6.60938 18.6136 6.89063 18.8618C7.06044 19.0096 7.27654 19.0909 7.5 19.0909C7.72346 19.0909 7.93956 19.0096 8.10938 18.8618C8.4375 18.6136 15 12.7909 15 7.63634C15 5.61106 14.2098 3.66872 12.8033 2.23663C11.3968 0.804541 9.48912 0 7.5 0ZM7.5 16.8477C5.50312 14.9386 1.875 10.8245 1.875 7.63634C1.875 6.11738 2.46763 4.66063 3.52252 3.58656C4.57742 2.51249 6.00816 1.90908 7.5 1.90908C8.99184 1.90908 10.4226 2.51249 11.4775 3.58656C12.5324 4.66063 13.125 6.11738 13.125 7.63634C13.125 10.8245 9.49687 14.9481 7.5 16.8477ZM7.5 3.81817C6.75832 3.81817 6.0333 4.0421 5.41661 4.46165C4.79993 4.88119 4.31928 5.47751 4.03545 6.17519C3.75162 6.87287 3.67736 7.64057 3.82205 8.38123C3.96675 9.12188 4.3239 9.80221 4.84835 10.3362C5.3728 10.8702 6.04098 11.2338 6.76841 11.3811C7.49584 11.5285 8.24984 11.4529 8.93506 11.1639C9.62029 10.8749 10.206 10.3855 10.618 9.7576C11.0301 9.12971 11.25 8.3915 11.25 7.63634C11.25 6.6237 10.8549 5.65253 10.1517 4.93649C9.44839 4.22044 8.49456 3.81817 7.5 3.81817ZM7.5 9.54542C7.12916 9.54542 6.76665 9.43346 6.45831 9.22369C6.14996 9.01391 5.90964 8.71575 5.76773 8.36691C5.62581 8.01807 5.58868 7.63422 5.66103 7.2639C5.73337 6.89357 5.91195 6.5534 6.17418 6.28641C6.4364 6.01942 6.77049 5.8376 7.13421 5.76394C7.49792 5.69027 7.87492 5.72808 8.21753 5.87257C8.56014 6.01707 8.85298 6.26176 9.05901 6.57571C9.26503 6.88966 9.375 7.25876 9.375 7.63634C9.375 8.14266 9.17746 8.62824 8.82582 8.98627C8.47419 9.34429 7.99728 9.54542 7.5 9.54542Z" fill="#0A45BB"/>
</svg>
