<svg width="16" height="9" viewBox="0 0 16 9" fill="none" xmlns="http://www.w3.org/2000/svg">
<path fill-rule="evenodd" clip-rule="evenodd" d="M7.77209 8.98736H8.69398C8.69398 8.98736 9.03969 8.98736 9.15493 8.75983C9.27017 8.64607 9.27017 8.30478 9.27017 8.30478C9.27017 8.30478 9.27017 7.05337 9.84635 6.82584C10.4225 6.59831 11.2292 8.07725 12.0359 8.64607C12.612 9.10112 13.073 8.98736 13.073 8.98736H15.2625C15.2625 8.98736 16.4149 8.87359 15.8387 8.07725C15.8387 7.96348 15.493 7.39466 14.2254 6.25702C12.8425 5.00562 13.073 5.23315 14.6863 3.07163C15.7234 1.82022 16.0691 1.02388 15.9539 0.682584C15.8387 0.341292 15.1472 0.455056 15.1472 0.455056H12.7273C12.7273 0.455056 12.4968 0.455056 12.3816 0.455056C12.2663 0.56882 12.1511 0.682584 12.1511 0.682584C12.1511 0.682584 11.8054 1.70646 11.2292 2.50281C10.3073 4.4368 9.84635 4.4368 9.61588 4.32303C9.27017 4.09551 9.3854 3.29916 9.3854 2.73034C9.3854 1.02388 9.61588 0.227528 8.80922 0.113764C8.57875 0 8.34827 0 7.65685 0C6.85019 0 6.04353 0 5.69782 0.227528C5.35211 0.341292 5.23688 0.682584 5.35211 0.682584C5.46735 0.682584 5.9283 0.796348 6.04353 1.02388C6.27401 1.36517 6.27401 2.04775 6.27401 2.04775C6.27401 2.04775 6.38924 4.09551 5.9283 4.32303C5.58259 4.55056 5.12164 4.20927 4.19974 2.61657C3.7388 1.70646 3.39309 0.796348 3.39309 0.796348C3.39309 0.796348 3.27785 0.682584 3.16261 0.56882C2.93214 0.455056 2.8169 0.341292 2.8169 0.341292H0.512164C0.512164 0.341292 0.166453 0.341292 0.0512164 0.455056C-0.0640205 0.56882 0.0512164 0.910112 0.0512164 0.910112C0.0512164 0.910112 1.89501 5.00562 3.85403 7.16713C5.69782 9.10112 7.77209 8.98736 7.77209 8.98736Z" fill="white"/>
</svg>
